<svg  viewBox="0 0 1900 1170" fill="none" xmlns="http://www.w3.org/2000/svg">
<path d="M1250 103H650C594.772 103 550 147.772 550 203V803C550 858.228 594.772 903 650 903H1250C1305.23 903 1350 858.228 1350 803V203C1350 147.772 1305.23 103 1250 103Z" stroke="url(#paint0_linear_42_19)" stroke-width="50"/>
<path d="M976.5 483.5V483.5C1011.02 518.018 1066.98 518.018 1101.5 483.5V483.5C1136.02 448.982 1136.02 393.018 1101.5 358.5V358.5C1066.98 323.982 1011.02 323.982 976.5 358.5V358.5C941.982 393.018 941.982 448.982 976.5 483.5V483.5ZM976.5 483.5L781 679" stroke="url(#paint1_linear_42_19)" stroke-width="37" stroke-linecap="round"/>
<path d="M700 253V253C635.806 413.485 635.806 592.515 700 753V753" stroke="url(#paint2_linear_42_19)" stroke-width="37"/>
<path d="M1200 253V253C1264.19 413.485 1264.19 592.515 1200 753V753" stroke="url(#paint3_linear_42_19)" stroke-width="37"/>
<path d="M144.4 1120.2C138.667 1120.2 133.667 1119.33 129.4 1117.6C125.2 1115.87 122.033 1113.5 119.9 1110.5L128.2 1102.8C130.2 1105 132.533 1106.73 135.2 1108C137.933 1109.2 141.033 1109.8 144.5 1109.8C147.433 1109.8 149.733 1109.37 151.4 1108.5C153.067 1107.57 153.9 1106.17 153.9 1104.3C153.9 1102.83 153.333 1101.83 152.2 1101.3C151.067 1100.7 149.5 1100.23 147.5 1099.9L139.2 1098.6C136.867 1098.27 134.7 1097.77 132.7 1097.1C130.7 1096.37 128.967 1095.4 127.5 1094.2C126.033 1093 124.867 1091.53 124 1089.8C123.133 1088.07 122.7 1085.97 122.7 1083.5C122.7 1078.1 124.767 1073.87 128.9 1070.8C133.033 1067.73 138.833 1066.2 146.3 1066.2C151.367 1066.2 155.667 1066.9 159.2 1068.3C162.8 1069.63 165.667 1071.57 167.8 1074.1L160.4 1082.5C158.867 1080.83 156.9 1079.43 154.5 1078.3C152.1 1077.17 149.2 1076.6 145.8 1076.6C140.067 1076.6 137.2 1078.33 137.2 1081.8C137.2 1083.33 137.767 1084.4 138.9 1085C140.033 1085.53 141.6 1085.97 143.6 1086.3L151.8 1087.6C154.133 1087.93 156.3 1088.47 158.3 1089.2C160.3 1089.87 162.033 1090.8 163.5 1092C165.033 1093.2 166.233 1094.67 167.1 1096.4C167.967 1098.13 168.4 1100.23 168.4 1102.7C168.4 1108.1 166.3 1112.37 162.1 1115.5C157.967 1118.63 152.067 1120.2 144.4 1120.2ZM216.361 1120.2C207.694 1120.2 201.128 1117.8 196.661 1113C192.194 1108.2 189.961 1101.67 189.961 1093.4C189.961 1089.2 190.528 1085.43 191.661 1082.1C192.861 1078.7 194.528 1075.83 196.661 1073.5C198.861 1071.1 201.494 1069.3 204.561 1068.1C207.694 1066.83 211.194 1066.2 215.061 1066.2C218.928 1066.2 222.394 1066.83 225.461 1068.1C228.528 1069.3 231.128 1071.03 233.261 1073.3C235.394 1075.57 237.028 1078.33 238.161 1081.6C239.361 1084.8 239.961 1088.4 239.961 1092.4V1096.8H204.661V1097.7C204.661 1101.03 205.694 1103.73 207.761 1105.8C209.828 1107.8 212.861 1108.8 216.861 1108.8C219.928 1108.8 222.561 1108.23 224.761 1107.1C226.961 1105.9 228.861 1104.33 230.461 1102.4L238.461 1111.1C236.461 1113.57 233.661 1115.7 230.061 1117.5C226.461 1119.3 221.894 1120.2 216.361 1120.2ZM215.161 1076.8C211.961 1076.8 209.394 1077.8 207.461 1079.8C205.594 1081.73 204.661 1084.37 204.661 1087.7V1088.5H225.461V1087.7C225.461 1084.3 224.528 1081.63 222.661 1079.7C220.861 1077.77 218.361 1076.8 215.161 1076.8ZM303.622 1119C300.555 1119 298.089 1118.23 296.222 1116.7C294.355 1115.1 293.255 1112.83 292.922 1109.9H292.422C291.489 1113.3 289.622 1115.87 286.822 1117.6C284.089 1119.33 280.722 1120.2 276.722 1120.2C271.722 1120.2 267.689 1118.87 264.622 1116.2C261.622 1113.47 260.122 1109.67 260.122 1104.8C260.122 1099.4 262.089 1095.4 266.022 1092.8C269.955 1090.2 275.722 1088.9 283.322 1088.9H291.622V1086.3C291.622 1083.23 290.889 1080.93 289.422 1079.4C288.022 1077.8 285.622 1077 282.222 1077C279.089 1077 276.555 1077.6 274.622 1078.8C272.689 1080 271.022 1081.57 269.622 1083.5L261.522 1076.3C263.255 1073.37 265.955 1070.97 269.622 1069.1C273.355 1067.17 278.122 1066.2 283.922 1066.2C290.989 1066.2 296.489 1067.83 300.422 1071.1C304.422 1074.3 306.422 1079.17 306.422 1085.7V1108.3H312.122V1119H303.622ZM282.322 1110.5C284.922 1110.5 287.122 1109.87 288.922 1108.6C290.722 1107.33 291.622 1105.5 291.622 1103.1V1096.9H283.722C277.655 1096.9 274.622 1098.93 274.622 1103V1105C274.622 1106.8 275.322 1108.17 276.722 1109.1C278.122 1110.03 279.989 1110.5 282.322 1110.5ZM332.283 1107.5H344.183V1078.9H332.283V1067.4H358.983V1082H359.683C360.149 1080.13 360.783 1078.33 361.583 1076.6C362.449 1074.8 363.516 1073.23 364.783 1071.9C366.116 1070.5 367.716 1069.4 369.583 1068.6C371.449 1067.8 373.649 1067.4 376.183 1067.4H381.083V1081H370.083C366.416 1081 363.649 1082.1 361.783 1084.3C359.916 1086.43 358.983 1089.07 358.983 1092.2V1107.5H375.983V1119H332.283V1107.5ZM426.944 1120.2C422.877 1120.2 419.21 1119.6 415.944 1118.4C412.744 1117.13 410.01 1115.33 407.744 1113C405.544 1110.67 403.844 1107.83 402.644 1104.5C401.444 1101.17 400.844 1097.4 400.844 1093.2C400.844 1089 401.444 1085.23 402.644 1081.9C403.844 1078.57 405.544 1075.73 407.744 1073.4C410.01 1071.07 412.744 1069.3 415.944 1068.1C419.21 1066.83 422.844 1066.2 426.844 1066.2C432.51 1066.2 437.044 1067.37 440.444 1069.7C443.91 1071.97 446.544 1075 448.344 1078.8L436.944 1085C436.01 1083 434.777 1081.33 433.244 1080C431.777 1078.67 429.644 1078 426.844 1078C423.444 1078 420.81 1079 418.944 1081C417.144 1082.93 416.244 1085.6 416.244 1089V1097.4C416.244 1100.8 417.144 1103.5 418.944 1105.5C420.81 1107.43 423.51 1108.4 427.044 1108.4C429.91 1108.4 432.144 1107.73 433.744 1106.4C435.41 1105.07 436.81 1103.33 437.944 1101.2L449.144 1107.6C447.277 1111.4 444.544 1114.47 440.944 1116.8C437.41 1119.07 432.744 1120.2 426.944 1120.2ZM471.305 1045H486.105V1076.8H486.705C487.305 1075.33 488.038 1073.97 488.905 1072.7C489.771 1071.43 490.805 1070.33 492.005 1069.4C493.271 1068.4 494.705 1067.63 496.305 1067.1C497.971 1066.5 499.838 1066.2 501.905 1066.2C504.371 1066.2 506.638 1066.63 508.705 1067.5C510.771 1068.3 512.538 1069.53 514.005 1071.2C515.471 1072.87 516.605 1074.9 517.405 1077.3C518.271 1079.7 518.705 1082.47 518.705 1085.6V1119H503.905V1087.6C503.905 1080.93 501.005 1077.6 495.205 1077.6C494.071 1077.6 492.938 1077.77 491.805 1078.1C490.738 1078.37 489.771 1078.83 488.905 1079.5C488.038 1080.1 487.338 1080.87 486.805 1081.8C486.338 1082.73 486.105 1083.83 486.105 1085.1V1119H471.305V1045ZM548.766 1095.6V1081.4H580.766V1095.6H548.766ZM636.127 1120.2C627.46 1120.2 620.893 1117.8 616.427 1113C611.96 1108.2 609.727 1101.67 609.727 1093.4C609.727 1089.2 610.293 1085.43 611.427 1082.1C612.627 1078.7 614.293 1075.83 616.427 1073.5C618.627 1071.1 621.26 1069.3 624.327 1068.1C627.46 1066.83 630.96 1066.2 634.827 1066.2C638.693 1066.2 642.16 1066.83 645.227 1068.1C648.293 1069.3 650.893 1071.03 653.027 1073.3C655.16 1075.57 656.793 1078.33 657.927 1081.6C659.127 1084.8 659.727 1088.4 659.727 1092.4V1096.8H624.427V1097.7C624.427 1101.03 625.46 1103.73 627.527 1105.8C629.593 1107.8 632.627 1108.8 636.627 1108.8C639.693 1108.8 642.327 1108.23 644.527 1107.1C646.727 1105.9 648.627 1104.33 650.227 1102.4L658.227 1111.1C656.227 1113.57 653.427 1115.7 649.827 1117.5C646.227 1119.3 641.66 1120.2 636.127 1120.2ZM634.927 1076.8C631.727 1076.8 629.16 1077.8 627.227 1079.8C625.36 1081.73 624.427 1084.37 624.427 1087.7V1088.5H645.227V1087.7C645.227 1084.3 644.293 1081.63 642.427 1079.7C640.627 1077.77 638.127 1076.8 634.927 1076.8ZM676.988 1119L696.288 1092.8L678.288 1067.4H695.188L700.688 1075.7L704.888 1082.4H705.688L709.988 1075.7L715.588 1067.4H731.088L713.088 1092L732.388 1119H715.388L708.888 1109.3L704.388 1102.4H703.588L699.188 1109.3L692.588 1119H676.988ZM750.548 1067.4H765.348V1076.8H766.048C767.315 1073.73 769.148 1071.2 771.548 1069.2C773.948 1067.2 777.215 1066.2 781.348 1066.2C784.215 1066.2 786.815 1066.73 789.148 1067.8C791.548 1068.87 793.582 1070.5 795.248 1072.7C796.982 1074.9 798.315 1077.7 799.248 1081.1C800.248 1084.5 800.748 1088.53 800.748 1093.2C800.748 1097.87 800.248 1101.9 799.248 1105.3C798.315 1108.7 796.982 1111.5 795.248 1113.7C793.582 1115.9 791.548 1117.53 789.148 1118.6C786.815 1119.67 784.215 1120.2 781.348 1120.2C777.215 1120.2 773.948 1119.23 771.548 1117.3C769.148 1115.3 767.315 1112.73 766.048 1109.6H765.348V1139H750.548V1067.4ZM774.948 1108.7C778.282 1108.7 780.848 1107.7 782.648 1105.7C784.448 1103.63 785.348 1100.8 785.348 1097.2V1089.2C785.348 1085.6 784.448 1082.8 782.648 1080.8C780.848 1078.73 778.282 1077.7 774.948 1077.7C772.348 1077.7 770.082 1078.33 768.148 1079.6C766.282 1080.87 765.348 1082.87 765.348 1085.6V1100.8C765.348 1103.53 766.282 1105.53 768.148 1106.8C770.082 1108.07 772.348 1108.7 774.948 1108.7ZM822.009 1107.5H833.909V1078.9H822.009V1067.4H848.709V1082H849.409C849.876 1080.13 850.509 1078.33 851.309 1076.6C852.176 1074.8 853.243 1073.23 854.509 1071.9C855.843 1070.5 857.443 1069.4 859.309 1068.6C861.176 1067.8 863.376 1067.4 865.909 1067.4H870.809V1081H859.809C856.143 1081 853.376 1082.1 851.509 1084.3C849.643 1086.43 848.709 1089.07 848.709 1092.2V1107.5H865.709V1119H822.009V1107.5ZM915.97 1120.2C907.304 1120.2 900.737 1117.8 896.27 1113C891.804 1108.2 889.57 1101.67 889.57 1093.4C889.57 1089.2 890.137 1085.43 891.27 1082.1C892.47 1078.7 894.137 1075.83 896.27 1073.5C898.47 1071.1 901.104 1069.3 904.17 1068.1C907.304 1066.83 910.804 1066.2 914.67 1066.2C918.537 1066.2 922.004 1066.83 925.07 1068.1C928.137 1069.3 930.737 1071.03 932.87 1073.3C935.004 1075.57 936.637 1078.33 937.77 1081.6C938.97 1084.8 939.57 1088.4 939.57 1092.4V1096.8H904.27V1097.7C904.27 1101.03 905.304 1103.73 907.37 1105.8C909.437 1107.8 912.47 1108.8 916.47 1108.8C919.537 1108.8 922.17 1108.23 924.37 1107.1C926.57 1105.9 928.47 1104.33 930.07 1102.4L938.07 1111.1C936.07 1113.57 933.27 1115.7 929.67 1117.5C926.07 1119.3 921.504 1120.2 915.97 1120.2ZM914.77 1076.8C911.57 1076.8 909.004 1077.8 907.07 1079.8C905.204 1081.73 904.27 1084.37 904.27 1087.7V1088.5H925.07V1087.7C925.07 1084.3 924.137 1081.63 922.27 1079.7C920.47 1077.77 917.97 1076.8 914.77 1076.8ZM983.931 1120.2C978.198 1120.2 973.198 1119.33 968.931 1117.6C964.731 1115.87 961.565 1113.5 959.431 1110.5L967.731 1102.8C969.731 1105 972.065 1106.73 974.731 1108C977.465 1109.2 980.565 1109.8 984.031 1109.8C986.965 1109.8 989.265 1109.37 990.931 1108.5C992.598 1107.57 993.431 1106.17 993.431 1104.3C993.431 1102.83 992.865 1101.83 991.731 1101.3C990.598 1100.7 989.031 1100.23 987.031 1099.9L978.731 1098.6C976.398 1098.27 974.231 1097.77 972.231 1097.1C970.231 1096.37 968.498 1095.4 967.031 1094.2C965.565 1093 964.398 1091.53 963.531 1089.8C962.665 1088.07 962.231 1085.97 962.231 1083.5C962.231 1078.1 964.298 1073.87 968.431 1070.8C972.565 1067.73 978.365 1066.2 985.831 1066.2C990.898 1066.2 995.198 1066.9 998.731 1068.3C1002.33 1069.63 1005.2 1071.57 1007.33 1074.1L999.931 1082.5C998.398 1080.83 996.431 1079.43 994.031 1078.3C991.631 1077.17 988.731 1076.6 985.331 1076.6C979.598 1076.6 976.731 1078.33 976.731 1081.8C976.731 1083.33 977.298 1084.4 978.431 1085C979.565 1085.53 981.131 1085.97 983.131 1086.3L991.331 1087.6C993.665 1087.93 995.831 1088.47 997.831 1089.2C999.831 1089.87 1001.56 1090.8 1003.03 1092C1004.56 1093.2 1005.76 1094.67 1006.63 1096.4C1007.5 1098.13 1007.93 1100.23 1007.93 1102.7C1007.93 1108.1 1005.83 1112.37 1001.63 1115.5C997.498 1118.63 991.598 1120.2 983.931 1120.2ZM1053.89 1120.2C1048.16 1120.2 1043.16 1119.33 1038.89 1117.6C1034.69 1115.87 1031.53 1113.5 1029.39 1110.5L1037.69 1102.8C1039.69 1105 1042.03 1106.73 1044.69 1108C1047.43 1109.2 1050.53 1109.8 1053.99 1109.8C1056.93 1109.8 1059.23 1109.37 1060.89 1108.5C1062.56 1107.57 1063.39 1106.17 1063.39 1104.3C1063.39 1102.83 1062.83 1101.83 1061.69 1101.3C1060.56 1100.7 1058.99 1100.23 1056.99 1099.9L1048.69 1098.6C1046.36 1098.27 1044.19 1097.77 1042.19 1097.1C1040.19 1096.37 1038.46 1095.4 1036.99 1094.2C1035.53 1093 1034.36 1091.53 1033.49 1089.8C1032.63 1088.07 1032.19 1085.97 1032.19 1083.5C1032.19 1078.1 1034.26 1073.87 1038.39 1070.8C1042.53 1067.73 1048.33 1066.2 1055.79 1066.2C1060.86 1066.2 1065.16 1066.9 1068.69 1068.3C1072.29 1069.63 1075.16 1071.57 1077.29 1074.1L1069.89 1082.5C1068.36 1080.83 1066.39 1079.43 1063.99 1078.3C1061.59 1077.17 1058.69 1076.6 1055.29 1076.6C1049.56 1076.6 1046.69 1078.33 1046.69 1081.8C1046.69 1083.33 1047.26 1084.4 1048.39 1085C1049.53 1085.53 1051.09 1085.97 1053.09 1086.3L1061.29 1087.6C1063.63 1087.93 1065.79 1088.47 1067.79 1089.2C1069.79 1089.87 1071.53 1090.8 1072.99 1092C1074.53 1093.2 1075.73 1094.67 1076.59 1096.4C1077.46 1098.13 1077.89 1100.23 1077.89 1102.7C1077.89 1108.1 1075.79 1112.37 1071.59 1115.5C1067.46 1118.63 1061.56 1120.2 1053.89 1120.2ZM1127.65 1060.8C1124.32 1060.8 1121.99 1060.13 1120.65 1058.8C1119.39 1057.4 1118.75 1055.73 1118.75 1053.8V1050.9C1118.75 1048.9 1119.39 1047.23 1120.65 1045.9C1121.99 1044.57 1124.32 1043.9 1127.65 1043.9C1130.99 1043.9 1133.29 1044.57 1134.55 1045.9C1135.89 1047.23 1136.55 1048.9 1136.55 1050.9V1053.8C1136.55 1055.73 1135.89 1057.4 1134.55 1058.8C1133.29 1060.13 1130.99 1060.8 1127.65 1060.8ZM1103.85 1107.5H1120.25V1078.9H1103.85V1067.4H1135.05V1107.5H1150.25V1119H1103.85V1107.5ZM1194.41 1120.2C1190.41 1120.2 1186.81 1119.6 1183.61 1118.4C1180.41 1117.13 1177.68 1115.33 1175.41 1113C1173.21 1110.67 1171.51 1107.83 1170.31 1104.5C1169.11 1101.17 1168.51 1097.4 1168.51 1093.2C1168.51 1089 1169.11 1085.23 1170.31 1081.9C1171.51 1078.57 1173.21 1075.73 1175.41 1073.4C1177.68 1071.07 1180.41 1069.3 1183.61 1068.1C1186.81 1066.83 1190.41 1066.2 1194.41 1066.2C1198.41 1066.2 1202.01 1066.83 1205.21 1068.1C1208.41 1069.3 1211.11 1071.07 1213.31 1073.4C1215.58 1075.73 1217.31 1078.57 1218.51 1081.9C1219.71 1085.23 1220.31 1089 1220.31 1093.2C1220.31 1097.4 1219.71 1101.17 1218.51 1104.5C1217.31 1107.83 1215.58 1110.67 1213.31 1113C1211.11 1115.33 1208.41 1117.13 1205.21 1118.4C1202.01 1119.6 1198.41 1120.2 1194.41 1120.2ZM1194.41 1109.2C1197.75 1109.2 1200.35 1108.17 1202.21 1106.1C1204.08 1104.03 1205.01 1101.1 1205.01 1097.3V1089.1C1205.01 1085.3 1204.08 1082.37 1202.21 1080.3C1200.35 1078.23 1197.75 1077.2 1194.41 1077.2C1191.08 1077.2 1188.48 1078.23 1186.61 1080.3C1184.75 1082.37 1183.81 1085.3 1183.81 1089.1V1097.3C1183.81 1101.1 1184.75 1104.03 1186.61 1106.1C1188.48 1108.17 1191.08 1109.2 1194.41 1109.2ZM1240.88 1119V1067.4H1255.68V1076.8H1256.28C1256.88 1075.33 1257.61 1073.97 1258.48 1072.7C1259.34 1071.43 1260.38 1070.33 1261.58 1069.4C1262.84 1068.4 1264.28 1067.63 1265.88 1067.1C1267.54 1066.5 1269.41 1066.2 1271.48 1066.2C1273.94 1066.2 1276.21 1066.63 1278.28 1067.5C1280.34 1068.3 1282.11 1069.53 1283.58 1071.2C1285.04 1072.87 1286.18 1074.9 1286.98 1077.3C1287.84 1079.7 1288.28 1082.47 1288.28 1085.6V1119H1273.48V1087.6C1273.48 1080.93 1270.58 1077.6 1264.78 1077.6C1263.64 1077.6 1262.51 1077.77 1261.38 1078.1C1260.31 1078.37 1259.34 1078.83 1258.48 1079.5C1257.61 1080.1 1256.91 1080.87 1256.38 1081.8C1255.91 1082.73 1255.68 1083.83 1255.68 1085.1V1119H1240.88ZM1318.34 1095.6V1081.4H1350.34V1095.6H1318.34ZM1380.2 1067.4H1395V1076.8H1395.7C1396.96 1073.73 1398.8 1071.2 1401.2 1069.2C1403.6 1067.2 1406.86 1066.2 1411 1066.2C1413.86 1066.2 1416.46 1066.73 1418.8 1067.8C1421.2 1068.87 1423.23 1070.5 1424.9 1072.7C1426.63 1074.9 1427.96 1077.7 1428.9 1081.1C1429.9 1084.5 1430.4 1088.53 1430.4 1093.2C1430.4 1097.87 1429.9 1101.9 1428.9 1105.3C1427.96 1108.7 1426.63 1111.5 1424.9 1113.7C1423.23 1115.9 1421.2 1117.53 1418.8 1118.6C1416.46 1119.67 1413.86 1120.2 1411 1120.2C1406.86 1120.2 1403.6 1119.23 1401.2 1117.3C1398.8 1115.3 1396.96 1112.73 1395.7 1109.6H1395V1139H1380.2V1067.4ZM1404.6 1108.7C1407.93 1108.7 1410.5 1107.7 1412.3 1105.7C1414.1 1103.63 1415 1100.8 1415 1097.2V1089.2C1415 1085.6 1414.1 1082.8 1412.3 1080.8C1410.5 1078.73 1407.93 1077.7 1404.6 1077.7C1402 1077.7 1399.73 1078.33 1397.8 1079.6C1395.93 1080.87 1395 1082.87 1395 1085.6V1100.8C1395 1103.53 1395.93 1105.53 1397.8 1106.8C1399.73 1108.07 1402 1108.7 1404.6 1108.7ZM1492.96 1119C1489.89 1119 1487.42 1118.23 1485.56 1116.7C1483.69 1115.1 1482.59 1112.83 1482.26 1109.9H1481.76C1480.82 1113.3 1478.96 1115.87 1476.16 1117.6C1473.42 1119.33 1470.06 1120.2 1466.06 1120.2C1461.06 1120.2 1457.02 1118.87 1453.96 1116.2C1450.96 1113.47 1449.46 1109.67 1449.46 1104.8C1449.46 1099.4 1451.42 1095.4 1455.36 1092.8C1459.29 1090.2 1465.06 1088.9 1472.66 1088.9H1480.96V1086.3C1480.96 1083.23 1480.22 1080.93 1478.76 1079.4C1477.36 1077.8 1474.96 1077 1471.56 1077C1468.42 1077 1465.89 1077.6 1463.96 1078.8C1462.02 1080 1460.36 1081.57 1458.96 1083.5L1450.86 1076.3C1452.59 1073.37 1455.29 1070.97 1458.96 1069.1C1462.69 1067.17 1467.46 1066.2 1473.26 1066.2C1480.32 1066.2 1485.82 1067.83 1489.76 1071.1C1493.76 1074.3 1495.76 1079.17 1495.76 1085.7V1108.3H1501.46V1119H1492.96ZM1471.66 1110.5C1474.26 1110.5 1476.46 1109.87 1478.26 1108.6C1480.06 1107.33 1480.96 1105.5 1480.96 1103.1V1096.9H1473.06C1466.99 1096.9 1463.96 1098.93 1463.96 1103V1105C1463.96 1106.8 1464.66 1108.17 1466.06 1109.1C1467.46 1110.03 1469.32 1110.5 1471.66 1110.5ZM1521.62 1107.5H1533.52V1078.9H1521.62V1067.4H1548.32V1082H1549.02C1549.49 1080.13 1550.12 1078.33 1550.92 1076.6C1551.79 1074.8 1552.85 1073.23 1554.12 1071.9C1555.45 1070.5 1557.05 1069.4 1558.92 1068.6C1560.79 1067.8 1562.99 1067.4 1565.52 1067.4H1570.42V1081H1559.42C1555.75 1081 1552.99 1082.1 1551.12 1084.3C1549.25 1086.43 1548.32 1089.07 1548.32 1092.2V1107.5H1565.32V1119H1521.62V1107.5ZM1613.58 1120.2C1607.85 1120.2 1602.85 1119.33 1598.58 1117.6C1594.38 1115.87 1591.21 1113.5 1589.08 1110.5L1597.38 1102.8C1599.38 1105 1601.71 1106.73 1604.38 1108C1607.11 1109.2 1610.21 1109.8 1613.68 1109.8C1616.61 1109.8 1618.91 1109.37 1620.58 1108.5C1622.25 1107.57 1623.08 1106.17 1623.08 1104.3C1623.08 1102.83 1622.51 1101.83 1621.38 1101.3C1620.25 1100.7 1618.68 1100.23 1616.68 1099.9L1608.38 1098.6C1606.05 1098.27 1603.88 1097.77 1601.88 1097.1C1599.88 1096.37 1598.15 1095.4 1596.68 1094.2C1595.21 1093 1594.05 1091.53 1593.18 1089.8C1592.31 1088.07 1591.88 1085.97 1591.88 1083.5C1591.88 1078.1 1593.95 1073.87 1598.08 1070.8C1602.21 1067.73 1608.01 1066.2 1615.48 1066.2C1620.55 1066.2 1624.85 1066.9 1628.38 1068.3C1631.98 1069.63 1634.85 1071.57 1636.98 1074.1L1629.58 1082.5C1628.05 1080.83 1626.08 1079.43 1623.68 1078.3C1621.28 1077.17 1618.38 1076.6 1614.98 1076.6C1609.25 1076.6 1606.38 1078.33 1606.38 1081.8C1606.38 1083.33 1606.95 1084.4 1608.08 1085C1609.21 1085.53 1610.78 1085.97 1612.78 1086.3L1620.98 1087.6C1623.31 1087.93 1625.48 1088.47 1627.48 1089.2C1629.48 1089.87 1631.21 1090.8 1632.68 1092C1634.21 1093.2 1635.41 1094.67 1636.28 1096.4C1637.15 1098.13 1637.58 1100.23 1637.58 1102.7C1637.58 1108.1 1635.48 1112.37 1631.28 1115.5C1627.15 1118.63 1621.25 1120.2 1613.58 1120.2ZM1685.54 1120.2C1676.87 1120.2 1670.31 1117.8 1665.84 1113C1661.37 1108.2 1659.14 1101.67 1659.14 1093.4C1659.14 1089.2 1659.71 1085.43 1660.84 1082.1C1662.04 1078.7 1663.71 1075.83 1665.84 1073.5C1668.04 1071.1 1670.67 1069.3 1673.74 1068.1C1676.87 1066.83 1680.37 1066.2 1684.24 1066.2C1688.11 1066.2 1691.57 1066.83 1694.64 1068.1C1697.71 1069.3 1700.31 1071.03 1702.44 1073.3C1704.57 1075.57 1706.21 1078.33 1707.34 1081.6C1708.54 1084.8 1709.14 1088.4 1709.14 1092.4V1096.8H1673.84V1097.7C1673.84 1101.03 1674.87 1103.73 1676.94 1105.8C1679.01 1107.8 1682.04 1108.8 1686.04 1108.8C1689.11 1108.8 1691.74 1108.23 1693.94 1107.1C1696.14 1105.9 1698.04 1104.33 1699.64 1102.4L1707.64 1111.1C1705.64 1113.57 1702.84 1115.7 1699.24 1117.5C1695.64 1119.3 1691.07 1120.2 1685.54 1120.2ZM1684.34 1076.8C1681.14 1076.8 1678.57 1077.8 1676.64 1079.8C1674.77 1081.73 1673.84 1084.37 1673.84 1087.7V1088.5H1694.64V1087.7C1694.64 1084.3 1693.71 1081.63 1691.84 1079.7C1690.04 1077.77 1687.54 1076.8 1684.34 1076.8ZM1731.5 1107.5H1743.4V1078.9H1731.5V1067.4H1758.2V1082H1758.9C1759.37 1080.13 1760 1078.33 1760.8 1076.6C1761.67 1074.8 1762.73 1073.23 1764 1071.9C1765.33 1070.5 1766.93 1069.4 1768.8 1068.6C1770.67 1067.8 1772.87 1067.4 1775.4 1067.4H1780.3V1081H1769.3C1765.63 1081 1762.87 1082.1 1761 1084.3C1759.13 1086.43 1758.2 1089.07 1758.2 1092.2V1107.5H1775.2V1119H1731.5V1107.5Z" fill="url(#paint4_linear_42_19)"/>
<defs>
<linearGradient id="paint0_linear_42_19" x1="550" y1="103" x2="1350" y2="903" gradientUnits="userSpaceOnUse">
<stop stop-color="#1A15FF"/>
<stop offset="0.510417" stop-color="#FF098E"/>
<stop offset="1" stop-color="#0ACAFF"/>
</linearGradient>
<linearGradient id="paint1_linear_42_19" x1="926.5" y1="325" x2="926.5" y2="672" gradientUnits="userSpaceOnUse">
<stop stop-color="#1A15FF"/>
<stop offset="0.517534" stop-color="#FF098E"/>
<stop offset="1" stop-color="#0ACAFF"/>
</linearGradient>
<linearGradient id="paint2_linear_42_19" x1="650" y1="253" x2="650" y2="753" gradientUnits="userSpaceOnUse">
<stop stop-color="#1A15FF"/>
<stop offset="0.5" stop-color="#FF098E"/>
<stop offset="1" stop-color="#0ACAFF"/>
</linearGradient>
<linearGradient id="paint3_linear_42_19" x1="1250" y1="253" x2="1250" y2="753" gradientUnits="userSpaceOnUse">
<stop stop-color="#1A15FF"/>
<stop offset="0.5" stop-color="#FF098E"/>
<stop offset="1" stop-color="#0ACAFF"/>
</linearGradient>
<linearGradient id="paint4_linear_42_19" x1="115" y1="1118.86" x2="1785" y2="1118.86" gradientUnits="userSpaceOnUse">
<stop stop-color="#1A15FF"/>
<stop offset="0.473958" stop-color="#FF098E"/>
<stop offset="1" stop-color="#0ACAFF"/>
</linearGradient>
</defs>
</svg>
