<svg viewBox="0 0 1350 1150" fill="none" xmlns="http://www.w3.org/2000/svg">
<path d="M975 100H375C319.772 100 275 144.772 275 200V800C275 855.228 319.772 900 375 900H975C1030.23 900 1075 855.228 1075 800V200C1075 144.772 1030.23 100 975 100Z" stroke="url(#paint0_linear_42_19)" stroke-width="50"/>
<path d="M701.5 480.5V480.5C736.018 515.018 791.982 515.018 826.5 480.5V480.5C861.018 445.982 861.018 390.018 826.5 355.5V355.5C791.982 320.982 736.018 320.982 701.5 355.5V355.5C666.982 390.018 666.982 445.982 701.5 480.5V480.5ZM701.5 480.5L506 676" stroke="url(#paint1_linear_42_19)" stroke-width="37" stroke-linecap="round"/>
<path d="M425 250V250C360.806 410.485 360.806 589.515 425 750V750" stroke="url(#paint2_linear_42_19)" stroke-width="37"/>
<path d="M925 250V250C989.194 410.485 989.194 589.515 925 750V750" stroke="url(#paint3_linear_42_19)" stroke-width="37"/>
<path d="M120.58 1068.84C116.567 1068.84 113.067 1068.23 110.08 1067.02C107.14 1065.81 104.923 1064.15 103.43 1062.05L109.24 1056.66C110.64 1058.2 112.273 1059.41 114.14 1060.3C116.053 1061.14 118.223 1061.56 120.65 1061.56C122.703 1061.56 124.313 1061.26 125.48 1060.65C126.647 1060 127.23 1059.02 127.23 1057.71C127.23 1056.68 126.833 1055.98 126.04 1055.61C125.247 1055.19 124.15 1054.86 122.75 1054.63L116.94 1053.72C115.307 1053.49 113.79 1053.14 112.39 1052.67C110.99 1052.16 109.777 1051.48 108.75 1050.64C107.723 1049.8 106.907 1048.77 106.3 1047.56C105.693 1046.35 105.39 1044.88 105.39 1043.15C105.39 1039.37 106.837 1036.41 109.73 1034.26C112.623 1032.11 116.683 1031.04 121.91 1031.04C125.457 1031.04 128.467 1031.53 130.94 1032.51C133.46 1033.44 135.467 1034.8 136.96 1036.57L131.78 1042.45C130.707 1041.28 129.33 1040.3 127.65 1039.51C125.97 1038.72 123.94 1038.32 121.56 1038.32C117.547 1038.32 115.54 1039.53 115.54 1041.96C115.54 1043.03 115.937 1043.78 116.73 1044.2C117.523 1044.57 118.62 1044.88 120.02 1045.11L125.76 1046.02C127.393 1046.25 128.91 1046.63 130.31 1047.14C131.71 1047.61 132.923 1048.26 133.95 1049.1C135.023 1049.94 135.863 1050.97 136.47 1052.18C137.077 1053.39 137.38 1054.86 137.38 1056.59C137.38 1060.37 135.91 1063.36 132.97 1065.55C130.077 1067.74 125.947 1068.84 120.58 1068.84ZM170.953 1068.84C164.886 1068.84 160.289 1067.16 157.163 1063.8C154.036 1060.44 152.473 1055.87 152.473 1050.08C152.473 1047.14 152.869 1044.5 153.663 1042.17C154.503 1039.79 155.669 1037.78 157.163 1036.15C158.703 1034.47 160.546 1033.21 162.693 1032.37C164.886 1031.48 167.336 1031.04 170.043 1031.04C172.749 1031.04 175.176 1031.48 177.323 1032.37C179.469 1033.21 181.289 1034.42 182.783 1036.01C184.276 1037.6 185.419 1039.53 186.213 1041.82C187.053 1044.06 187.473 1046.58 187.473 1049.38V1052.46H162.763V1053.09C162.763 1055.42 163.486 1057.31 164.933 1058.76C166.379 1060.16 168.503 1060.86 171.303 1060.86C173.449 1060.86 175.293 1060.46 176.833 1059.67C178.373 1058.83 179.703 1057.73 180.823 1056.38L186.423 1062.47C185.023 1064.2 183.063 1065.69 180.543 1066.95C178.023 1068.21 174.826 1068.84 170.953 1068.84ZM170.113 1038.46C167.873 1038.46 166.076 1039.16 164.723 1040.56C163.416 1041.91 162.763 1043.76 162.763 1046.09V1046.65H177.323V1046.09C177.323 1043.71 176.669 1041.84 175.363 1040.49C174.103 1039.14 172.353 1038.46 170.113 1038.46ZM232.035 1068C229.889 1068 228.162 1067.46 226.855 1066.39C225.549 1065.27 224.779 1063.68 224.545 1061.63H224.195C223.542 1064.01 222.235 1065.81 220.275 1067.02C218.362 1068.23 216.005 1068.84 213.205 1068.84C209.705 1068.84 206.882 1067.91 204.735 1066.04C202.635 1064.13 201.585 1061.47 201.585 1058.06C201.585 1054.28 202.962 1051.48 205.715 1049.66C208.469 1047.84 212.505 1046.93 217.825 1046.93H223.635V1045.11C223.635 1042.96 223.122 1041.35 222.095 1040.28C221.115 1039.16 219.435 1038.6 217.055 1038.6C214.862 1038.6 213.089 1039.02 211.735 1039.86C210.382 1040.7 209.215 1041.8 208.235 1043.15L202.565 1038.11C203.779 1036.06 205.669 1034.38 208.235 1033.07C210.849 1031.72 214.185 1031.04 218.245 1031.04C223.192 1031.04 227.042 1032.18 229.795 1034.47C232.595 1036.71 233.995 1040.12 233.995 1044.69V1060.51H237.985V1068H232.035ZM217.125 1062.05C218.945 1062.05 220.485 1061.61 221.745 1060.72C223.005 1059.83 223.635 1058.55 223.635 1056.87V1052.53H218.105C213.859 1052.53 211.735 1053.95 211.735 1056.8V1058.2C211.735 1059.46 212.225 1060.42 213.205 1061.07C214.185 1061.72 215.492 1062.05 217.125 1062.05ZM252.098 1059.95H260.428V1039.93H252.098V1031.88H270.788V1042.1H271.278C271.605 1040.79 272.048 1039.53 272.608 1038.32C273.215 1037.06 273.961 1035.96 274.848 1035.03C275.781 1034.05 276.901 1033.28 278.208 1032.72C279.515 1032.16 281.055 1031.88 282.828 1031.88H286.258V1041.4H278.558C275.991 1041.4 274.055 1042.17 272.748 1043.71C271.441 1045.2 270.788 1047.05 270.788 1049.24V1059.95H282.688V1068H252.098V1059.95ZM318.361 1068.84C315.514 1068.84 312.947 1068.42 310.661 1067.58C308.421 1066.69 306.507 1065.43 304.921 1063.8C303.381 1062.17 302.191 1060.18 301.351 1057.85C300.511 1055.52 300.091 1052.88 300.091 1049.94C300.091 1047 300.511 1044.36 301.351 1042.03C302.191 1039.7 303.381 1037.71 304.921 1036.08C306.507 1034.45 308.421 1033.21 310.661 1032.37C312.947 1031.48 315.491 1031.04 318.291 1031.04C322.257 1031.04 325.431 1031.86 327.811 1033.49C330.237 1035.08 332.081 1037.2 333.341 1039.86L325.361 1044.2C324.707 1042.8 323.844 1041.63 322.771 1040.7C321.744 1039.77 320.251 1039.3 318.291 1039.3C315.911 1039.3 314.067 1040 312.761 1041.4C311.501 1042.75 310.871 1044.62 310.871 1047V1052.88C310.871 1055.26 311.501 1057.15 312.761 1058.55C314.067 1059.9 315.957 1060.58 318.431 1060.58C320.437 1060.58 322.001 1060.11 323.121 1059.18C324.287 1058.25 325.267 1057.03 326.061 1055.54L333.901 1060.02C332.594 1062.68 330.681 1064.83 328.161 1066.46C325.687 1068.05 322.421 1068.84 318.361 1068.84ZM349.413 1016.2H359.773V1038.46H360.193C360.613 1037.43 361.127 1036.48 361.733 1035.59C362.34 1034.7 363.063 1033.93 363.903 1033.28C364.79 1032.58 365.793 1032.04 366.913 1031.67C368.08 1031.25 369.387 1031.04 370.833 1031.04C372.56 1031.04 374.147 1031.34 375.593 1031.95C377.04 1032.51 378.277 1033.37 379.303 1034.54C380.33 1035.71 381.123 1037.13 381.683 1038.81C382.29 1040.49 382.593 1042.43 382.593 1044.62V1068H372.233V1046.02C372.233 1041.35 370.203 1039.02 366.143 1039.02C365.35 1039.02 364.557 1039.14 363.763 1039.37C363.017 1039.56 362.34 1039.88 361.733 1040.35C361.127 1040.77 360.637 1041.31 360.263 1041.96C359.937 1042.61 359.773 1043.38 359.773 1044.27V1068H349.413V1016.2ZM403.636 1051.62V1041.68H426.036V1051.62H403.636ZM464.789 1068.84C458.722 1068.84 454.125 1067.16 450.999 1063.8C447.872 1060.44 446.309 1055.87 446.309 1050.08C446.309 1047.14 446.705 1044.5 447.499 1042.17C448.339 1039.79 449.505 1037.78 450.999 1036.15C452.539 1034.47 454.382 1033.21 456.529 1032.37C458.722 1031.48 461.172 1031.04 463.879 1031.04C466.585 1031.04 469.012 1031.48 471.159 1032.37C473.305 1033.21 475.125 1034.42 476.619 1036.01C478.112 1037.6 479.255 1039.53 480.049 1041.82C480.889 1044.06 481.309 1046.58 481.309 1049.38V1052.46H456.599V1053.09C456.599 1055.42 457.322 1057.31 458.769 1058.76C460.215 1060.16 462.339 1060.86 465.139 1060.86C467.285 1060.86 469.129 1060.46 470.669 1059.67C472.209 1058.83 473.539 1057.73 474.659 1056.38L480.259 1062.47C478.859 1064.2 476.899 1065.69 474.379 1066.95C471.859 1068.21 468.662 1068.84 464.789 1068.84ZM463.949 1038.46C461.709 1038.46 459.912 1039.16 458.559 1040.56C457.252 1041.91 456.599 1043.76 456.599 1046.09V1046.65H471.159V1046.09C471.159 1043.71 470.505 1041.84 469.199 1040.49C467.939 1039.14 466.189 1038.46 463.949 1038.46ZM493.391 1068L506.901 1049.66L494.301 1031.88H506.131L509.981 1037.69L512.921 1042.38H513.481L516.491 1037.69L520.411 1031.88H531.261L518.661 1049.1L532.171 1068H520.271L515.721 1061.21L512.571 1056.38H512.011L508.931 1061.21L504.311 1068H493.391ZM544.884 1031.88H555.244V1038.46H555.734C556.621 1036.31 557.904 1034.54 559.584 1033.14C561.264 1031.74 563.551 1031.04 566.444 1031.04C568.451 1031.04 570.271 1031.41 571.904 1032.16C573.584 1032.91 575.007 1034.05 576.174 1035.59C577.387 1037.13 578.321 1039.09 578.974 1041.47C579.674 1043.85 580.024 1046.67 580.024 1049.94C580.024 1053.21 579.674 1056.03 578.974 1058.41C578.321 1060.79 577.387 1062.75 576.174 1064.29C575.007 1065.83 573.584 1066.97 571.904 1067.72C570.271 1068.47 568.451 1068.84 566.444 1068.84C563.551 1068.84 561.264 1068.16 559.584 1066.81C557.904 1065.41 556.621 1063.61 555.734 1061.42H555.244V1082H544.884V1031.88ZM561.964 1060.79C564.297 1060.79 566.094 1060.09 567.354 1058.69C568.614 1057.24 569.244 1055.26 569.244 1052.74V1047.14C569.244 1044.62 568.614 1042.66 567.354 1041.26C566.094 1039.81 564.297 1039.09 561.964 1039.09C560.144 1039.09 558.557 1039.53 557.204 1040.42C555.897 1041.31 555.244 1042.71 555.244 1044.62V1055.26C555.244 1057.17 555.897 1058.57 557.204 1059.46C558.557 1060.35 560.144 1060.79 561.964 1060.79ZM594.907 1059.95H603.237V1039.93H594.907V1031.88H613.597V1042.1H614.087C614.413 1040.79 614.857 1039.53 615.417 1038.32C616.023 1037.06 616.77 1035.96 617.657 1035.03C618.59 1034.05 619.71 1033.28 621.017 1032.72C622.323 1032.16 623.863 1031.88 625.637 1031.88H629.067V1041.4H621.367C618.8 1041.4 616.863 1042.17 615.557 1043.71C614.25 1045.2 613.597 1047.05 613.597 1049.24V1059.95H625.497V1068H594.907V1059.95ZM660.679 1068.84C654.613 1068.84 650.016 1067.16 646.889 1063.8C643.763 1060.44 642.199 1055.87 642.199 1050.08C642.199 1047.14 642.596 1044.5 643.389 1042.17C644.229 1039.79 645.396 1037.78 646.889 1036.15C648.429 1034.47 650.273 1033.21 652.419 1032.37C654.613 1031.48 657.063 1031.04 659.769 1031.04C662.476 1031.04 664.903 1031.48 667.049 1032.37C669.196 1033.21 671.016 1034.42 672.509 1036.01C674.003 1037.6 675.146 1039.53 675.939 1041.82C676.779 1044.06 677.199 1046.58 677.199 1049.38V1052.46H652.489V1053.09C652.489 1055.42 653.213 1057.31 654.659 1058.76C656.106 1060.16 658.229 1060.86 661.029 1060.86C663.176 1060.86 665.019 1060.46 666.559 1059.67C668.099 1058.83 669.429 1057.73 670.549 1056.38L676.149 1062.47C674.749 1064.2 672.789 1065.69 670.269 1066.95C667.749 1068.21 664.553 1068.84 660.679 1068.84ZM659.839 1038.46C657.599 1038.46 655.803 1039.16 654.449 1040.56C653.143 1041.91 652.489 1043.76 652.489 1046.09V1046.65H667.049V1046.09C667.049 1043.71 666.396 1041.84 665.089 1040.49C663.829 1039.14 662.079 1038.46 659.839 1038.46ZM708.252 1068.84C704.239 1068.84 700.739 1068.23 697.752 1067.02C694.812 1065.81 692.595 1064.15 691.102 1062.05L696.912 1056.66C698.312 1058.2 699.945 1059.41 701.812 1060.3C703.725 1061.14 705.895 1061.56 708.322 1061.56C710.375 1061.56 711.985 1061.26 713.152 1060.65C714.319 1060 714.902 1059.02 714.902 1057.71C714.902 1056.68 714.505 1055.98 713.712 1055.61C712.919 1055.19 711.822 1054.86 710.422 1054.63L704.612 1053.72C702.979 1053.49 701.462 1053.14 700.062 1052.67C698.662 1052.16 697.449 1051.48 696.422 1050.64C695.395 1049.8 694.579 1048.77 693.972 1047.56C693.365 1046.35 693.062 1044.88 693.062 1043.15C693.062 1039.37 694.509 1036.41 697.402 1034.26C700.295 1032.11 704.355 1031.04 709.582 1031.04C713.129 1031.04 716.139 1031.53 718.612 1032.51C721.132 1033.44 723.139 1034.8 724.632 1036.57L719.452 1042.45C718.379 1041.28 717.002 1040.3 715.322 1039.51C713.642 1038.72 711.612 1038.32 709.232 1038.32C705.219 1038.32 703.212 1039.53 703.212 1041.96C703.212 1043.03 703.609 1043.78 704.402 1044.2C705.195 1044.57 706.292 1044.88 707.692 1045.11L713.432 1046.02C715.065 1046.25 716.582 1046.63 717.982 1047.14C719.382 1047.61 720.595 1048.26 721.622 1049.1C722.695 1049.94 723.535 1050.97 724.142 1052.18C724.749 1053.39 725.052 1054.86 725.052 1056.59C725.052 1060.37 723.582 1063.36 720.642 1065.55C717.749 1067.74 713.619 1068.84 708.252 1068.84ZM757.225 1068.84C753.211 1068.84 749.711 1068.23 746.725 1067.02C743.785 1065.81 741.568 1064.15 740.075 1062.05L745.885 1056.66C747.285 1058.2 748.918 1059.41 750.785 1060.3C752.698 1061.14 754.868 1061.56 757.295 1061.56C759.348 1061.56 760.958 1061.26 762.125 1060.65C763.291 1060 763.875 1059.02 763.875 1057.71C763.875 1056.68 763.478 1055.98 762.685 1055.61C761.891 1055.19 760.795 1054.86 759.395 1054.63L753.585 1053.72C751.951 1053.49 750.435 1053.14 749.035 1052.67C747.635 1052.16 746.421 1051.48 745.395 1050.64C744.368 1049.8 743.551 1048.77 742.945 1047.56C742.338 1046.35 742.035 1044.88 742.035 1043.15C742.035 1039.37 743.481 1036.41 746.375 1034.26C749.268 1032.11 753.328 1031.04 758.555 1031.04C762.101 1031.04 765.111 1031.53 767.585 1032.51C770.105 1033.44 772.111 1034.8 773.605 1036.57L768.425 1042.45C767.351 1041.28 765.975 1040.3 764.295 1039.51C762.615 1038.72 760.585 1038.32 758.205 1038.32C754.191 1038.32 752.185 1039.53 752.185 1041.96C752.185 1043.03 752.581 1043.78 753.375 1044.2C754.168 1044.57 755.265 1044.88 756.665 1045.11L762.405 1046.02C764.038 1046.25 765.555 1046.63 766.955 1047.14C768.355 1047.61 769.568 1048.26 770.595 1049.1C771.668 1049.94 772.508 1050.97 773.115 1052.18C773.721 1053.39 774.025 1054.86 774.025 1056.59C774.025 1060.37 772.555 1063.36 769.615 1065.55C766.721 1067.74 762.591 1068.84 757.225 1068.84ZM808.857 1027.26C806.524 1027.26 804.891 1026.79 803.957 1025.86C803.071 1024.88 802.627 1023.71 802.627 1022.36V1020.33C802.627 1018.93 803.071 1017.76 803.957 1016.83C804.891 1015.9 806.524 1015.43 808.857 1015.43C811.191 1015.43 812.801 1015.9 813.687 1016.83C814.621 1017.76 815.087 1018.93 815.087 1020.33V1022.36C815.087 1023.71 814.621 1024.88 813.687 1025.86C812.801 1026.79 811.191 1027.26 808.857 1027.26ZM792.197 1059.95H803.677V1039.93H792.197V1031.88H814.037V1059.95H824.677V1068H792.197V1059.95ZM855.59 1068.84C852.79 1068.84 850.27 1068.42 848.03 1067.58C845.79 1066.69 843.877 1065.43 842.29 1063.8C840.75 1062.17 839.56 1060.18 838.72 1057.85C837.88 1055.52 837.46 1052.88 837.46 1049.94C837.46 1047 837.88 1044.36 838.72 1042.03C839.56 1039.7 840.75 1037.71 842.29 1036.08C843.877 1034.45 845.79 1033.21 848.03 1032.37C850.27 1031.48 852.79 1031.04 855.59 1031.04C858.39 1031.04 860.91 1031.48 863.15 1032.37C865.39 1033.21 867.28 1034.45 868.82 1036.08C870.407 1037.71 871.62 1039.7 872.46 1042.03C873.3 1044.36 873.72 1047 873.72 1049.94C873.72 1052.88 873.3 1055.52 872.46 1057.85C871.62 1060.18 870.407 1062.17 868.82 1063.8C867.28 1065.43 865.39 1066.69 863.15 1067.58C860.91 1068.42 858.39 1068.84 855.59 1068.84ZM855.59 1061.14C857.923 1061.14 859.743 1060.42 861.05 1058.97C862.357 1057.52 863.01 1055.47 863.01 1052.81V1047.07C863.01 1044.41 862.357 1042.36 861.05 1040.91C859.743 1039.46 857.923 1038.74 855.59 1038.74C853.257 1038.74 851.437 1039.46 850.13 1040.91C848.823 1042.36 848.17 1044.41 848.17 1047.07V1052.81C848.17 1055.47 848.823 1057.52 850.13 1058.97C851.437 1060.42 853.257 1061.14 855.59 1061.14ZM888.113 1068V1031.88H898.473V1038.46H898.893C899.313 1037.43 899.826 1036.48 900.433 1035.59C901.039 1034.7 901.763 1033.93 902.603 1033.28C903.489 1032.58 904.493 1032.04 905.613 1031.67C906.779 1031.25 908.086 1031.04 909.533 1031.04C911.259 1031.04 912.846 1031.34 914.293 1031.95C915.739 1032.51 916.976 1033.37 918.003 1034.54C919.029 1035.71 919.823 1037.13 920.383 1038.81C920.989 1040.49 921.293 1042.43 921.293 1044.62V1068H910.933V1046.02C910.933 1041.35 908.903 1039.02 904.843 1039.02C904.049 1039.02 903.256 1039.14 902.463 1039.37C901.716 1039.56 901.039 1039.88 900.433 1040.35C899.826 1040.77 899.336 1041.31 898.963 1041.96C898.636 1042.61 898.473 1043.38 898.473 1044.27V1068H888.113ZM942.335 1051.62V1041.68H964.735V1051.62H942.335ZM985.638 1031.88H995.998V1038.46H996.488C997.374 1036.31 998.658 1034.54 1000.34 1033.14C1002.02 1031.74 1004.3 1031.04 1007.2 1031.04C1009.2 1031.04 1011.02 1031.41 1012.66 1032.16C1014.34 1032.91 1015.76 1034.05 1016.93 1035.59C1018.14 1037.13 1019.07 1039.09 1019.73 1041.47C1020.43 1043.85 1020.78 1046.67 1020.78 1049.94C1020.78 1053.21 1020.43 1056.03 1019.73 1058.41C1019.07 1060.79 1018.14 1062.75 1016.93 1064.29C1015.76 1065.83 1014.34 1066.97 1012.66 1067.72C1011.02 1068.47 1009.2 1068.84 1007.2 1068.84C1004.3 1068.84 1002.02 1068.16 1000.34 1066.81C998.658 1065.41 997.374 1063.61 996.488 1061.42H995.998V1082H985.638V1031.88ZM1002.72 1060.79C1005.05 1060.79 1006.85 1060.09 1008.11 1058.69C1009.37 1057.24 1010 1055.26 1010 1052.74V1047.14C1010 1044.62 1009.37 1042.66 1008.11 1041.26C1006.85 1039.81 1005.05 1039.09 1002.72 1039.09C1000.9 1039.09 999.311 1039.53 997.958 1040.42C996.651 1041.31 995.998 1042.71 995.998 1044.62V1055.26C995.998 1057.17 996.651 1058.57 997.958 1059.46C999.311 1060.35 1000.9 1060.79 1002.72 1060.79ZM1064.57 1068C1062.42 1068 1060.7 1067.46 1059.39 1066.39C1058.08 1065.27 1057.31 1063.68 1057.08 1061.63H1056.73C1056.08 1064.01 1054.77 1065.81 1052.81 1067.02C1050.9 1068.23 1048.54 1068.84 1045.74 1068.84C1042.24 1068.84 1039.42 1067.91 1037.27 1066.04C1035.17 1064.13 1034.12 1061.47 1034.12 1058.06C1034.12 1054.28 1035.5 1051.48 1038.25 1049.66C1041 1047.84 1045.04 1046.93 1050.36 1046.93H1056.17V1045.11C1056.17 1042.96 1055.66 1041.35 1054.63 1040.28C1053.65 1039.16 1051.97 1038.6 1049.59 1038.6C1047.4 1038.6 1045.62 1039.02 1044.27 1039.86C1042.92 1040.7 1041.75 1041.8 1040.77 1043.15L1035.1 1038.11C1036.31 1036.06 1038.2 1034.38 1040.77 1033.07C1043.38 1031.72 1046.72 1031.04 1050.78 1031.04C1055.73 1031.04 1059.58 1032.18 1062.33 1034.47C1065.13 1036.71 1066.53 1040.12 1066.53 1044.69V1060.51H1070.52V1068H1064.57ZM1049.66 1062.05C1051.48 1062.05 1053.02 1061.61 1054.28 1060.72C1055.54 1059.83 1056.17 1058.55 1056.17 1056.87V1052.53H1050.64C1046.39 1052.53 1044.27 1053.95 1044.27 1056.8V1058.2C1044.27 1059.46 1044.76 1060.42 1045.74 1061.07C1046.72 1061.72 1048.03 1062.05 1049.66 1062.05ZM1084.63 1059.95H1092.96V1039.93H1084.63V1031.88H1103.32V1042.1H1103.81C1104.14 1040.79 1104.58 1039.53 1105.14 1038.32C1105.75 1037.06 1106.5 1035.96 1107.38 1035.03C1108.32 1034.05 1109.44 1033.28 1110.74 1032.72C1112.05 1032.16 1113.59 1031.88 1115.36 1031.88H1118.79V1041.4H1111.09C1108.53 1041.4 1106.59 1042.17 1105.28 1043.71C1103.98 1045.2 1103.32 1047.05 1103.32 1049.24V1059.95H1115.22V1068H1084.63V1059.95ZM1149.01 1068.84C1144.99 1068.84 1141.49 1068.23 1138.51 1067.02C1135.57 1065.81 1133.35 1064.15 1131.86 1062.05L1137.67 1056.66C1139.07 1058.2 1140.7 1059.41 1142.57 1060.3C1144.48 1061.14 1146.65 1061.56 1149.08 1061.56C1151.13 1061.56 1152.74 1061.26 1153.91 1060.65C1155.07 1060 1155.66 1059.02 1155.66 1057.71C1155.66 1056.68 1155.26 1055.98 1154.47 1055.61C1153.67 1055.19 1152.58 1054.86 1151.18 1054.63L1145.37 1053.72C1143.73 1053.49 1142.22 1053.14 1140.82 1052.67C1139.42 1052.16 1138.2 1051.48 1137.18 1050.64C1136.15 1049.8 1135.33 1048.77 1134.73 1047.56C1134.12 1046.35 1133.82 1044.88 1133.82 1043.15C1133.82 1039.37 1135.26 1036.41 1138.16 1034.26C1141.05 1032.11 1145.11 1031.04 1150.34 1031.04C1153.88 1031.04 1156.89 1031.53 1159.37 1032.51C1161.89 1033.44 1163.89 1034.8 1165.39 1036.57L1160.21 1042.45C1159.13 1041.28 1157.76 1040.3 1156.08 1039.51C1154.4 1038.72 1152.37 1038.32 1149.99 1038.32C1145.97 1038.32 1143.97 1039.53 1143.97 1041.96C1143.97 1043.03 1144.36 1043.78 1145.16 1044.2C1145.95 1044.57 1147.05 1044.88 1148.45 1045.11L1154.19 1046.02C1155.82 1046.25 1157.34 1046.63 1158.74 1047.14C1160.14 1047.61 1161.35 1048.26 1162.38 1049.1C1163.45 1049.94 1164.29 1050.97 1164.9 1052.18C1165.5 1053.39 1165.81 1054.86 1165.81 1056.59C1165.81 1060.37 1164.34 1063.36 1161.4 1065.55C1158.5 1067.74 1154.37 1068.84 1149.01 1068.84ZM1199.38 1068.84C1193.31 1068.84 1188.72 1067.16 1185.59 1063.8C1182.46 1060.44 1180.9 1055.87 1180.9 1050.08C1180.9 1047.14 1181.3 1044.5 1182.09 1042.17C1182.93 1039.79 1184.1 1037.78 1185.59 1036.15C1187.13 1034.47 1188.97 1033.21 1191.12 1032.37C1193.31 1031.48 1195.76 1031.04 1198.47 1031.04C1201.18 1031.04 1203.6 1031.48 1205.75 1032.37C1207.9 1033.21 1209.72 1034.42 1211.21 1036.01C1212.7 1037.6 1213.85 1039.53 1214.64 1041.82C1215.48 1044.06 1215.9 1046.58 1215.9 1049.38V1052.46H1191.19V1053.09C1191.19 1055.42 1191.91 1057.31 1193.36 1058.76C1194.81 1060.16 1196.93 1060.86 1199.73 1060.86C1201.88 1060.86 1203.72 1060.46 1205.26 1059.67C1206.8 1058.83 1208.13 1057.73 1209.25 1056.38L1214.85 1062.47C1213.45 1064.2 1211.49 1065.69 1208.97 1066.95C1206.45 1068.21 1203.25 1068.84 1199.38 1068.84ZM1198.54 1038.46C1196.3 1038.46 1194.5 1039.16 1193.15 1040.56C1191.84 1041.91 1191.19 1043.76 1191.19 1046.09V1046.65H1205.75V1046.09C1205.75 1043.71 1205.1 1041.84 1203.79 1040.49C1202.53 1039.14 1200.78 1038.46 1198.54 1038.46ZM1231.55 1059.95H1239.88V1039.93H1231.55V1031.88H1250.24V1042.1H1250.73C1251.06 1040.79 1251.5 1039.53 1252.06 1038.32C1252.67 1037.06 1253.41 1035.96 1254.3 1035.03C1255.23 1034.05 1256.35 1033.28 1257.66 1032.72C1258.97 1032.16 1260.51 1031.88 1262.28 1031.88H1265.71V1041.4H1258.01C1255.44 1041.4 1253.51 1042.17 1252.2 1043.71C1250.89 1045.2 1250.24 1047.05 1250.24 1049.24V1059.95H1262.14V1068H1231.55V1059.95Z" fill="url(#paint4_linear_42_19)"/>
<defs>
<linearGradient id="paint0_linear_42_19" x1="275" y1="100" x2="1075" y2="900" gradientUnits="userSpaceOnUse">
<stop stop-color="#1A15FF"/>
<stop offset="0.510417" stop-color="#FF098E"/>
<stop offset="1" stop-color="#0ACAFF"/>
</linearGradient>
<linearGradient id="paint1_linear_42_19" x1="651.5" y1="322" x2="651.5" y2="669" gradientUnits="userSpaceOnUse">
<stop stop-color="#1A15FF"/>
<stop offset="0.517534" stop-color="#FF098E"/>
<stop offset="1" stop-color="#0ACAFF"/>
</linearGradient>
<linearGradient id="paint2_linear_42_19" x1="375" y1="250" x2="375" y2="750" gradientUnits="userSpaceOnUse">
<stop stop-color="#1A15FF"/>
<stop offset="0.5" stop-color="#FF098E"/>
<stop offset="1" stop-color="#0ACAFF"/>
</linearGradient>
<linearGradient id="paint3_linear_42_19" x1="975" y1="250" x2="975" y2="750" gradientUnits="userSpaceOnUse">
<stop stop-color="#1A15FF"/>
<stop offset="0.5" stop-color="#FF098E"/>
<stop offset="1" stop-color="#0ACAFF"/>
</linearGradient>
<linearGradient id="paint4_linear_42_19" x1="100" y1="1068" x2="1269" y2="1068" gradientUnits="userSpaceOnUse">
<stop stop-color="#1A15FF"/>
<stop offset="0.473958" stop-color="#FF098E"/>
<stop offset="1" stop-color="#0ACAFF"/>
</linearGradient>
</defs>
</svg>
